<svg width="16" height="15" viewBox="0 0 16 15" fill="none" xmlns="http://www.w3.org/2000/svg">
<path d="M8 12.75C10.0625 12.75 11.75 11.0938 11.75 9C11.75 6.9375 10.0625 5.25 8 5.25C5.90625 5.25 4.25 6.9375 4.25 9C4.25 11.0938 5.90625 12.75 8 12.75ZM8 6.75C9.21875 6.75 10.25 7.78125 10.25 9C10.25 10.25 9.21875 11.25 8 11.25C6.75 11.25 5.75 10.25 5.75 9C5.75 7.78125 6.75 6.75 8 6.75ZM7.25 9C7.25 8.59375 7.5625 8.25 8 8.25C8.25 8.25 8.5 8.03125 8.5 7.75C8.5 7.5 8.25 7.25 8 7.25C7.03125 7.25 6.25 8.0625 6.25 9C6.25 9.28125 6.46875 9.5 6.75 9.5C7 9.5 7.25 9.28125 7.25 9ZM10.6875 4.46875H14.5V13.4688H1.5V4.46875H5.28125L6.03125 2.46875H9.9375L10.6875 4.46875ZM10.125 0.96875H6.03125C5.40625 0.96875 4.84375 1.375 4.625 1.96875L4.25 2.96875H1.5C0.65625 2.96875 0 3.65625 0 4.46875V13.4688C0 14.3125 0.65625 14.9688 1.5 14.9688H14.5C15.3125 14.9688 16 14.3125 16 13.4688V4.46875C16 3.65625 15.3125 2.96875 14.5 2.96875H11.75L11.2812 1.78125C11.0938 1.3125 10.6562 0.96875 10.125 0.96875Z" />
</svg>
