<svg width="107" height="142" viewBox="0 0 107 142" fill="none" xmlns="http://www.w3.org/2000/svg">
<path d="M89.5 18.5H98.5C102.918 18.5 106.5 22.0817 106.5 26.5V133.038C106.5 137.441 102.941 141.017 98.5379 141.038L9.03791 141.462C4.60486 141.483 1 137.895 1 133.462V26.5C1 22.0817 4.58172 18.5 9 18.5H18M18 18.5V17C18 12.5817 21.5817 9 26 9H42V7C42 3.68629 44.6863 1 48 1H60C63.3137 1 66 3.68629 66 7V9H81.5C85.9183 9 89.5 12.5817 89.5 17V29H18V18.5ZM45 63H90" />
<path d="M45 90H90" />
<path d="M45 115.5H90" />
<path d="M18 61L24.5 67L36 55" />
</svg>
